<svg width="17" height="18" viewBox="0 0 17 18" fill="none" xmlns="http://www.w3.org/2000/svg">
<path fill-rule="evenodd" clip-rule="evenodd" d="M4.04145 3.99996C4.04145 1.81383 5.81366 0.041626 7.99979 0.041626C10.1859 0.041626 11.9581 1.81383 11.9581 3.99996C11.9581 6.18609 10.1859 7.95829 7.99979 7.95829C5.81366 7.95829 4.04145 6.18609 4.04145 3.99996ZM7.99979 1.29163C6.50401 1.29163 5.29145 2.50419 5.29145 3.99996C5.29145 5.49573 6.50401 6.70829 7.99979 6.70829C9.49556 6.70829 10.7081 5.49573 10.7081 3.99996C10.7081 2.50419 9.49556 1.29163 7.99979 1.29163Z" fill="white"/>
<path d="M12.9998 10.5972C13.345 10.5972 13.6248 10.877 13.6248 11.2222V11.7083H14.1108C14.4559 11.7083 14.7358 11.9881 14.7358 12.3333C14.7358 12.6785 14.4559 12.9583 14.1108 12.9583H13.6248V13.4444C13.6248 13.7896 13.345 14.0694 12.9998 14.0694C12.6546 14.0694 12.3748 13.7896 12.3748 13.4444V12.9583H11.8885C11.5434 12.9583 11.2635 12.6785 11.2635 12.3333C11.2635 11.9881 11.5434 11.7083 11.8885 11.7083H12.3748V11.2222C12.3748 10.877 12.6546 10.5972 12.9998 10.5972Z" fill="white"/>
<path fill-rule="evenodd" clip-rule="evenodd" d="M10.312 9.42738C9.58472 9.285 8.80683 9.20829 7.99979 9.20829C6.07183 9.20829 4.29556 9.64653 2.97933 10.3869C1.68269 11.1163 0.70812 12.2217 0.70812 13.5833L0.708064 13.6683C0.707123 14.6365 0.705941 15.8516 1.7718 16.7196C2.29635 17.1467 3.03018 17.4505 4.02163 17.6512C5.01584 17.8524 6.31164 17.9583 7.99979 17.9583C10.3899 17.9583 12.008 17.7467 13.0995 17.3404C14.0818 16.9747 14.6642 16.4388 14.9751 15.7643C16.1604 15.0804 16.9581 13.8 16.9581 12.3333C16.9581 10.1472 15.1859 8.37496 12.9998 8.37496C11.9622 8.37496 11.0179 8.77417 10.312 9.42738ZM3.59215 11.4764C2.47593 12.1043 1.95812 12.8738 1.95812 13.5833C1.95812 14.6731 1.99172 15.2866 2.56111 15.7503C2.86989 16.0018 3.38606 16.2472 4.26961 16.426C5.1504 16.6043 6.3546 16.7083 7.99979 16.7083C10.1481 16.7083 11.5332 16.5305 12.4255 16.2503C10.5115 15.9721 9.04145 14.3244 9.04145 12.3333C9.04145 11.6934 9.19328 11.089 9.46288 10.5541C8.99475 10.4916 8.50483 10.4583 7.99979 10.4583C6.24585 10.4583 4.68878 10.8595 3.59215 11.4764ZM10.2915 12.3333C10.2915 10.8375 11.504 9.62496 12.9998 9.62496C14.4956 9.62496 15.7081 10.8375 15.7081 12.3333C15.7081 13.8291 14.4956 15.0416 12.9998 15.0416C11.504 15.0416 10.2915 13.8291 10.2915 12.3333Z" fill="white"/>
</svg>
